<svg xmlns="http://www.w3.org/2000/svg" xmlns:xlink="http://www.w3.org/1999/xlink" width="700" height="500">
<defs>
<style type="text/css"><![CDATA[
  .borderLine {
	   stroke: none;
	   fill-opacity:  0.2 ;
  }
  .outLine {
	   stroke-width:  3 ;
	   fill: none;
  }
  .circle {
	   stroke: #888888;
	   stroke-width: 0.5;
	   fill: none;
    pointer-events: all;
  }
  .nLabel {
	   font-family: Arial;
    pointer-events: none;
	   font-size: 10px;
	   text-anchor: middle;
	   alignment-baseline: central;
  }
  .belong {
	   font-family: Arial;
    pointer-events: none;
	   font-size: 5px;
	   text-anchor: middle;
	   alignment-baseline: central;
  }
  .legend {
    font-family: Arial;
    font-size: 15px;
  }
  #legendBox {
    display:  inline ;
  }
  .p0{
    stroke: none;
    fill:  purple ;
  }
  .q0{
    fill: none;
    stroke:  purple ;
  }
  .p1{
    stroke: none;
    fill:  blue ;
  }
  .q1{
    fill: none;
    stroke:  blue ;
  }
  .p2{
    stroke: none;
    fill:  green ;
  }
  .q2{
    fill: none;
    stroke:  green ;
  }
  .p3{
    stroke: none;
    fill:  gold ;
  }
  .q3{
    fill: none;
    stroke:  gold ;
  }
]]>
</style>
<symbol id="bl0">
<path d="M 403.68 397.37 L 399.69 398.45 L 395.61 399.08 L 391.52 399.28 L 387.51 399.11 L 383.63 398.66 L 379.94 398.02 L 376.45 397.34 L 373.14 396.72 L 369.96 396.28 L 366.89 396.10 L 363.90 396.21 L 360.97 396.64 L 358.10 397.35 L 355.29 398.30 L 352.51 399.43 L 349.75 400.67 L 346.96 401.94 L 344.10 403.18 L 341.12 404.35 L 337.97 405.41 L 334.63 406.35 L 331.10 407.19 L 327.40 407.93 L 323.60 408.61 L 319.76 409.24 L 315.97 409.82 L 312.30 410.38 L 308.76 410.92 L 305.39 411.43 L 302.15 411.94 L 299.00 412.46 L 295.93 412.97 L 292.88 413.49 L 289.84 413.98 L 286.78 414.42 L 283.66 414.77 L 280.46 414.95 L 277.14 414.90 L 273.70 414.52 L 270.18 413.76 L 266.63 412.57 L 263.13 410.94 L 259.75 408.88 L 256.53 406.46 L 253.48 403.73 L 250.58 400.77 L 247.79 397.63 L 245.07 394.37 L 242.38 391.02 L 239.69 387.63 L 237.00 384.21 L 234.30 380.78 L 231.61 377.35 L 228.94 373.92 L 226.30 370.50 L 223.70 367.07 L 221.16 363.64 L 218.70 360.18 L 216.36 356.67 L 214.19 353.09 L 212.24 349.42 L 210.58 345.63 L 209.25 341.75 L 208.27 337.78 L 207.65 333.75 L 207.35 329.68 L 207.32 325.58 L 207.51 321.46 L 207.87 317.32 L 208.34 313.16 L 208.89 308.99 L 209.49 304.82 L 210.12 300.64 L 210.78 296.46 L 211.45 292.28 L 212.12 288.11 L 212.78 283.95 L 213.42 279.81 L 214.05 275.69 L 214.67 271.60 L 215.32 267.53 L 216.03 263.51 L 216.85 259.57 L 217.82 255.72 L 218.99 252.02 L 220.37 248.51 L 221.95 245.23 L 223.72 242.22 L 225.66 239.48 L 227.77 237.01 L 230.04 234.81 L 232.47 232.86 L 235.09 231.15 L 237.90 229.69 L 240.93 228.48 L 244.18 227.54 L 247.65 226.88 L 251.30 226.52 L 255.09 226.46 L 258.97 226.68 L 262.89 227.11 L 266.78 227.69 L 270.59 228.30 L 274.29 228.85 L 277.83 229.26 L 281.24 229.47 L 284.52 229.47 L 287.69 229.22 L 290.79 228.74 L 293.82 228.03 L 296.78 227.10 L 299.67 225.97 L 302.49 224.66 L 305.25 223.20 L 307.96 221.62 L 310.67 219.94 L 313.42 218.20 L 316.24 216.43 L 319.15 214.67 L 322.15 212.97 L 325.20 211.38 L 328.27 209.93 L 331.34 208.66 L 334.40 207.56 L 337.48 206.63 L 340.61 205.86 L 343.82 205.24 L 347.12 204.76 L 350.51 204.41 L 353.98 204.21 L 357.49 204.17 L 361.05 204.29 L 364.61 204.59 L 368.16 205.07 L 371.66 205.73 L 375.07 206.55 L 378.37 207.53 L 381.55 208.67 L 384.62 209.95 L 387.61 211.39 L 390.54 213.01 L 393.43 214.82 L 396.31 216.84 L 399.15 219.06 L 401.94 221.49 L 404.64 224.11 L 407.25 226.90 L 409.72 229.85 L 412.04 232.95 L 414.18 236.16 L 416.12 239.48 L 417.87 242.87 L 419.42 246.30 L 420.76 249.75 L 421.93 253.16 L 422.95 256.53 L 423.87 259.85 L 424.79 263.11 L 425.78 266.35 L 426.93 269.57 L 428.31 272.78 L 429.98 275.94 L 431.93 279.01 L 434.17 281.95 L 436.65 284.74 L 439.34 287.37 L 442.16 289.85 L 445.07 292.23 L 448.00 294.56 L 450.89 296.92 L 453.65 299.37 L 456.23 301.97 L 458.56 304.78 L 460.56 307.81 L 462.18 311.04 L 463.36 314.44 L 464.08 317.98 L 464.30 321.57 L 464.02 325.17 L 463.24 328.70 L 461.99 332.08 L 460.30 335.27 L 458.21 338.22 L 455.79 340.92 L 453.10 343.40 L 450.22 345.69 L 447.21 347.84 L 444.14 349.94 L 441.11 352.04 L 438.21 354.20 L 435.54 356.46 L 433.19 358.87 L 431.23 361.43 L 429.66 364.15 L 428.42 367.02 L 427.36 370.03 L 426.34 373.16 L 425.18 376.37 L 423.76 379.62 L 421.99 382.84 L 419.84 385.96 L 417.28 388.88 L 414.35 391.55 L 411.07 393.88 L 407.50 395.84 Z" />
</symbol>
<symbol id="bl1">
<path d="M 369.48 338.91 L 364.96 340.47 L 360.37 341.99 L 355.72 343.47 L 351.03 344.95 L 346.32 346.43 L 341.60 347.92 L 336.88 349.45 L 332.15 351.04 L 327.43 352.67 L 322.70 354.35 L 317.94 356.03 L 313.16 357.64 L 308.33 359.08 L 303.47 360.28 L 298.57 361.19 L 293.62 361.80 L 288.63 362.16 L 283.62 362.38 L 278.60 362.57 L 273.58 362.82 L 268.58 363.18 L 263.60 363.65 L 258.64 364.18 L 253.70 364.66 L 248.78 365.00 L 243.86 365.06 L 238.97 364.76 L 234.13 364.06 L 229.35 362.94 L 224.65 361.44 L 220.03 359.62 L 215.50 357.55 L 211.03 355.33 L 206.60 353.00 L 202.20 350.63 L 197.81 348.24 L 193.43 345.84 L 189.04 343.46 L 184.65 341.09 L 180.27 338.73 L 175.88 336.38 L 171.50 334.03 L 167.12 331.68 L 162.74 329.33 L 158.36 326.97 L 153.99 324.62 L 149.62 322.28 L 145.25 319.96 L 140.88 317.66 L 136.51 315.38 L 132.15 313.12 L 127.79 310.88 L 123.44 308.64 L 119.10 306.41 L 114.75 304.18 L 110.40 301.94 L 106.04 299.69 L 101.66 297.43 L 97.27 295.15 L 92.87 292.85 L 88.48 290.53 L 84.09 288.18 L 79.72 285.81 L 75.40 283.38 L 71.12 280.89 L 66.92 278.32 L 62.82 275.66 L 58.82 272.88 L 54.93 269.97 L 51.18 266.92 L 47.56 263.74 L 44.07 260.42 L 40.73 256.95 L 37.53 253.35 L 34.49 249.62 L 31.60 245.76 L 28.87 241.78 L 26.31 237.68 L 23.91 233.47 L 21.70 229.15 L 19.66 224.74 L 17.82 220.25 L 16.16 215.69 L 14.70 211.06 L 13.43 206.38 L 12.36 201.66 L 11.49 196.90 L 10.81 192.11 L 10.34 187.30 L 10.07 182.46 L 10.00 177.62 L 10.14 172.76 L 10.48 167.89 L 11.03 163.02 L 11.79 158.15 L 12.76 153.30 L 13.94 148.47 L 15.32 143.69 L 16.92 138.96 L 18.71 134.31 L 20.69 129.74 L 22.86 125.27 L 25.21 120.92 L 27.74 116.68 L 30.43 112.56 L 33.28 108.59 L 36.28 104.75 L 39.42 101.06 L 42.70 97.52 L 46.11 94.13 L 49.64 90.90 L 53.27 87.84 L 57.01 84.94 L 60.85 82.21 L 64.77 79.65 L 68.79 77.26 L 72.90 75.03 L 77.09 72.98 L 81.37 71.09 L 85.74 69.37 L 90.19 67.83 L 94.73 66.46 L 99.34 65.28 L 104.01 64.28 L 108.73 63.47 L 113.50 62.85 L 118.30 62.43 L 123.11 62.21 L 127.93 62.20 L 132.75 62.38 L 137.57 62.76 L 142.36 63.34 L 147.11 64.11 L 151.83 65.07 L 156.49 66.21 L 161.10 67.50 L 165.64 68.94 L 170.13 70.50 L 174.57 72.15 L 178.98 73.88 L 183.37 75.65 L 187.75 77.45 L 192.13 79.26 L 196.53 81.08 L 200.93 82.91 L 205.35 84.76 L 209.76 86.61 L 214.18 88.49 L 218.59 90.38 L 222.99 92.27 L 227.38 94.18 L 231.76 96.08 L 236.14 97.97 L 240.52 99.86 L 244.91 101.75 L 249.29 103.65 L 253.68 105.56 L 258.08 107.49 L 262.48 109.44 L 266.90 111.40 L 271.32 113.37 L 275.76 115.36 L 280.21 117.35 L 284.67 119.35 L 289.14 121.34 L 293.61 123.34 L 298.08 125.33 L 302.55 127.31 L 307.01 129.26 L 311.46 131.20 L 315.91 133.12 L 320.35 135.02 L 324.78 136.91 L 329.21 138.79 L 333.66 140.66 L 338.11 142.54 L 342.56 144.41 L 347.02 146.29 L 351.48 148.16 L 355.93 150.04 L 360.37 151.91 L 364.81 153.78 L 369.25 155.63 L 373.71 157.49 L 378.18 159.35 L 382.65 161.25 L 387.10 163.22 L 391.50 165.31 L 395.77 167.59 L 399.84 170.13 L 403.59 173.01 L 406.95 176.27 L 409.82 179.92 L 412.20 183.92 L 414.09 188.20 L 415.56 192.70 L 416.67 197.32 L 417.54 202.01 L 418.23 206.73 L 418.83 211.46 L 419.37 216.17 L 419.89 220.87 L 420.40 225.55 L 420.92 230.23 L 421.44 234.90 L 421.97 239.58 L 422.50 244.27 L 423.00 248.97 L 423.45 253.68 L 423.83 258.37 L 424.10 263.06 L 424.21 267.73 L 424.12 272.39 L 423.80 277.04 L 423.21 281.66 L 422.34 286.23 L 421.17 290.75 L 419.72 295.16 L 417.97 299.46 L 415.95 303.61 L 413.66 307.59 L 411.09 311.39 L 408.27 315.00 L 405.19 318.39 L 401.89 321.54 L 398.36 324.45 L 394.64 327.11 L 390.74 329.52 L 386.70 331.71 L 382.54 333.71 L 378.27 335.55 L 373.92 337.28 Z" />
</symbol>
<symbol id="bl2">
<path d="M 437.78 385.91 L 434.64 387.28 L 431.41 388.61 L 428.09 389.92 L 424.66 391.24 L 421.10 392.59 L 417.40 393.97 L 413.58 395.34 L 409.67 396.63 L 405.75 397.79 L 401.89 398.72 L 398.14 399.36 L 394.52 399.68 L 391.04 399.67 L 387.67 399.31 L 384.39 398.61 L 381.19 397.57 L 378.08 396.17 L 375.06 394.41 L 372.16 392.32 L 369.44 389.92 L 366.93 387.28 L 364.68 384.47 L 362.69 381.55 L 360.91 378.58 L 359.26 375.57 L 357.65 372.55 L 355.97 369.54 L 354.11 366.53 L 352.00 363.50 L 349.59 360.46 L 346.88 357.37 L 343.91 354.24 L 340.73 351.06 L 337.41 347.86 L 334.01 344.63 L 330.59 341.41 L 327.17 338.23 L 323.77 335.11 L 320.39 332.10 L 317.02 329.24 L 313.61 326.57 L 310.12 324.12 L 306.51 321.87 L 302.76 319.81 L 298.89 317.91 L 294.96 316.12 L 291.02 314.41 L 287.15 312.76 L 283.41 311.19 L 279.81 309.69 L 276.35 308.25 L 273.00 306.88 L 269.73 305.56 L 266.50 304.28 L 263.28 303.04 L 260.06 301.86 L 256.85 300.73 L 253.62 299.67 L 250.39 298.66 L 247.16 297.63 L 243.93 296.51 L 240.73 295.24 L 237.58 293.72 L 234.52 291.92 L 231.59 289.81 L 228.84 287.38 L 226.32 284.65 L 224.08 281.64 L 222.16 278.39 L 220.59 274.94 L 219.39 271.34 L 218.58 267.62 L 218.18 263.83 L 218.18 260.02 L 218.58 256.22 L 219.35 252.48 L 220.44 248.83 L 221.79 245.26 L 223.32 241.80 L 224.96 238.43 L 226.63 235.12 L 228.28 231.86 L 229.87 228.60 L 231.38 225.33 L 232.79 222.02 L 234.11 218.69 L 235.33 215.31 L 236.44 211.91 L 237.44 208.49 L 238.34 205.06 L 239.14 201.62 L 239.85 198.18 L 240.50 194.72 L 241.12 191.26 L 241.77 187.80 L 242.48 184.35 L 243.33 180.94 L 244.36 177.57 L 245.62 174.28 L 247.13 171.08 L 248.91 168.00 L 250.97 165.07 L 253.29 162.31 L 255.86 159.76 L 258.66 157.43 L 261.66 155.36 L 264.83 153.57 L 268.16 152.06 L 271.62 150.85 L 275.17 149.93 L 278.80 149.29 L 282.48 148.90 L 286.18 148.75 L 289.88 148.79 L 293.58 148.99 L 297.26 149.29 L 300.95 149.68 L 304.64 150.12 L 308.34 150.58 L 312.06 151.05 L 315.78 151.51 L 319.51 151.95 L 323.25 152.38 L 326.98 152.78 L 330.73 153.17 L 334.47 153.55 L 338.21 153.96 L 341.92 154.42 L 345.59 155.00 L 349.19 155.75 L 352.68 156.73 L 356.01 158.00 L 359.13 159.61 L 361.98 161.57 L 364.52 163.87 L 366.71 166.50 L 368.50 169.41 L 369.90 172.57 L 370.93 175.93 L 371.66 179.45 L 372.19 183.08 L 372.69 186.78 L 373.31 190.47 L 374.19 194.05 L 375.42 197.43 L 377.06 200.50 L 379.11 203.23 L 381.57 205.59 L 384.43 207.62 L 387.68 209.36 L 391.30 210.86 L 395.24 212.21 L 399.44 213.43 L 403.83 214.59 L 408.33 215.69 L 412.89 216.77 L 417.48 217.83 L 422.06 218.88 L 426.64 219.90 L 431.21 220.91 L 435.78 221.89 L 440.36 222.86 L 444.93 223.83 L 449.50 224.81 L 454.04 225.86 L 458.54 227.03 L 462.94 228.38 L 467.17 229.95 L 471.16 231.77 L 474.82 233.86 L 478.10 236.18 L 480.96 238.71 L 483.39 241.41 L 485.40 244.26 L 487.03 247.24 L 488.29 250.32 L 489.20 253.51 L 489.77 256.78 L 490.00 260.14 L 489.90 263.59 L 489.49 267.15 L 488.79 270.86 L 487.82 274.73 L 486.64 278.78 L 485.29 282.98 L 483.85 287.31 L 482.37 291.74 L 480.89 296.23 L 479.43 300.74 L 478.00 305.26 L 476.61 309.75 L 475.24 314.20 L 473.90 318.60 L 472.58 322.92 L 471.29 327.14 L 470.04 331.23 L 468.84 335.14 L 467.69 338.87 L 466.56 342.42 L 465.44 345.82 L 464.32 349.11 L 463.16 352.33 L 461.98 355.51 L 460.75 358.68 L 459.47 361.82 L 458.12 364.95 L 456.67 368.02 L 455.07 370.99 L 453.26 373.82 L 451.23 376.44 L 448.94 378.82 L 446.43 380.94 L 443.70 382.80 L 440.81 384.43 Z" />
</symbol>
<symbol id="bl3">
<path d="M 413.00 322.37 L 413.29 325.41 L 413.93 328.40 L 414.92 331.29 L 416.23 334.05 L 417.86 336.66 L 419.81 339.11 L 422.06 341.38 L 424.61 343.51 L 427.45 345.52 L 430.54 347.45 L 433.80 349.32 L 437.14 351.17 L 440.44 353.04 L 443.55 354.99 L 446.36 357.04 L 448.75 359.25 L 450.64 361.63 L 451.97 364.20 L 452.70 366.92 L 452.83 369.76 L 452.37 372.66 L 451.37 375.53 L 449.92 378.30 L 448.10 380.90 L 446.02 383.35 L 443.72 385.66 L 441.25 387.89 L 438.60 390.11 L 435.78 392.37 L 432.77 394.69 L 429.60 397.08 L 426.30 399.54 L 422.94 402.04 L 419.54 404.57 L 416.16 407.13 L 412.82 409.70 L 409.53 412.27 L 406.31 414.80 L 403.17 417.28 L 400.13 419.67 L 397.20 421.93 L 394.41 424.07 L 391.72 426.07 L 389.12 427.95 L 386.57 429.74 L 384.03 431.42 L 381.46 433.00 L 378.84 434.43 L 376.16 435.68 L 373.39 436.69 L 370.55 437.41 L 367.66 437.79 L 364.75 437.80 L 361.85 437.45 L 359.02 436.75 L 356.27 435.71 L 353.61 434.40 L 351.06 432.85 L 348.60 431.14 L 346.20 429.30 L 343.83 427.36 L 341.45 425.33 L 339.02 423.21 L 336.49 420.97 L 333.81 418.60 L 330.99 416.11 L 328.03 413.50 L 324.98 410.80 L 321.91 408.04 L 318.89 405.24 L 316.02 402.41 L 313.35 399.55 L 310.94 396.66 L 308.79 393.72 L 306.89 390.72 L 305.17 387.67 L 303.58 384.58 L 302.03 381.53 L 300.46 378.57 L 298.83 375.75 L 297.10 373.09 L 295.26 370.58 L 293.32 368.19 L 291.30 365.89 L 289.24 363.63 L 287.18 361.36 L 285.19 359.05 L 283.32 356.67 L 281.61 354.19 L 280.14 351.58 L 278.95 348.85 L 278.06 345.98 L 277.50 342.98 L 277.25 339.87 L 277.28 336.63 L 277.55 333.28 L 277.99 329.82 L 278.56 326.27 L 279.21 322.64 L 279.90 318.95 L 280.60 315.23 L 281.31 311.47 L 282.01 307.69 L 282.71 303.90 L 283.40 300.11 L 284.08 296.30 L 284.75 292.48 L 285.41 288.67 L 286.05 284.86 L 286.65 281.08 L 287.23 277.36 L 287.76 273.72 L 288.27 270.15 L 288.76 266.66 L 289.29 263.22 L 289.88 259.81 L 290.59 256.42 L 291.44 253.02 L 292.47 249.64 L 293.70 246.27 L 295.11 242.95 L 296.70 239.68 L 298.47 236.49 L 300.40 233.38 L 302.46 230.34 L 304.63 227.38 L 306.87 224.47 L 309.14 221.59 L 311.38 218.69 L 313.54 215.75 L 315.56 212.75 L 317.40 209.65 L 319.02 206.46 L 320.39 203.18 L 321.49 199.81 L 322.32 196.37 L 322.90 192.88 L 323.28 189.38 L 323.55 185.89 L 323.79 182.46 L 324.12 179.14 L 324.63 175.96 L 325.40 172.95 L 326.47 170.12 L 327.85 167.50 L 329.54 165.09 L 331.54 162.92 L 333.81 161.01 L 336.32 159.38 L 339.05 158.07 L 341.95 157.09 L 344.98 156.43 L 348.10 156.10 L 351.28 156.04 L 354.49 156.23 L 357.71 156.61 L 360.92 157.13 L 364.14 157.75 L 367.35 158.45 L 370.56 159.20 L 373.77 160.01 L 376.99 160.87 L 380.21 161.77 L 383.43 162.71 L 386.65 163.70 L 389.86 164.75 L 393.03 165.87 L 396.14 167.09 L 399.16 168.44 L 402.03 169.97 L 404.71 171.70 L 407.16 173.67 L 409.34 175.89 L 411.23 178.34 L 412.84 180.99 L 414.17 183.81 L 415.26 186.75 L 416.15 189.77 L 416.87 192.84 L 417.47 195.97 L 417.97 199.13 L 418.42 202.34 L 418.82 205.60 L 419.20 208.91 L 419.57 212.28 L 419.93 215.70 L 420.29 219.18 L 420.66 222.71 L 421.02 226.28 L 421.39 229.89 L 421.76 233.52 L 422.13 237.15 L 422.49 240.75 L 422.83 244.32 L 423.17 247.84 L 423.49 251.31 L 423.80 254.73 L 424.09 258.12 L 424.35 261.48 L 424.57 264.80 L 424.71 268.08 L 424.75 271.31 L 424.69 274.49 L 424.49 277.63 L 424.16 280.74 L 423.68 283.82 L 423.07 286.87 L 422.33 289.89 L 421.46 292.86 L 420.48 295.79 L 419.40 298.69 L 418.26 301.56 L 417.09 304.44 L 415.95 307.33 L 414.91 310.26 L 414.04 313.23 L 413.40 316.26 L 413.04 319.31 Z" />
</symbol>
</defs>
<!-- isDone: 0 -->
<rect width="700" height="500" style="fill:#fff;stroke-width:0" />
<use class="p0 borderLine" xlink:href="#bl0"/>
<use class="p1 borderLine" xlink:href="#bl1"/>
<use class="p2 borderLine" xlink:href="#bl2"/>
<use class="p3 borderLine" xlink:href="#bl3"/>
<use class="q0 outLine" xlink:href="#bl0"/>
<use class="q1 outLine" xlink:href="#bl1"/>
<use class="q2 outLine" xlink:href="#bl2"/>
<use class="q3 outLine" xlink:href="#bl3"/>
<circle onclick="fromCircle(8)" class="circle" cx="275.5065" cy="389.0465" r="22.5296" />
<text class="nLabel" x="275.51" y="384.05">5</text>
<text class="belong" x="275.51" y="394.05">(1)</text>
<circle onclick="fromCircle(12)" class="circle" cx="241.1071" cy="332.2134" r="30.2266" />
<text class="nLabel" x="241.11" y="327.21">9</text>
<text class="belong" x="241.11" y="337.21">(1, 2)</text>
<circle onclick="fromCircle(14)" class="circle" cx="252.9494" cy="261.8494" r="31.8616" />
<text class="nLabel" x="252.95" y="256.85">10</text>
<text class="belong" x="252.95" y="266.85">(1, 2, 3)</text>
<circle onclick="fromCircle(15)" class="circle" cx="356.5740" cy="271.8911" r="63.7233" />
<text class="nLabel" x="356.57" y="266.89">40</text>
<text class="belong" x="356.57" y="276.89">(1, 2, 3, 4)</text>
<circle onclick="fromCircle(4)" class="circle" cx="124.1536" cy="177.1917" r="112.1964" />
<text class="nLabel" x="124.15" y="172.19">124</text>
<text class="belong" x="124.15" y="182.19">(2)</text>
<circle onclick="fromCircle(6)" class="circle" cx="282.6310" cy="188.7535" r="36.3278" />
<text class="nLabel" x="282.63" y="183.75">13</text>
<text class="belong" x="282.63" y="193.75">(2, 3)</text>
<circle onclick="fromCircle(7)" class="circle" cx="348.0358" cy="179.4580" r="20.1511" />
<text class="nLabel" x="348.04" y="174.46">4</text>
<text class="belong" x="348.04" y="184.46">(2, 3, 4)</text>
<circle onclick="fromCircle(5)" class="circle" cx="393.9297" cy="189.0059" r="17.4513" />
<text class="nLabel" x="393.93" y="184.01">3</text>
<text class="belong" x="393.93" y="194.01">(2, 4)</text>
<circle onclick="fromCircle(2)" class="circle" cx="458.3417" cy="260.3909" r="28.4979" />
<text class="nLabel" x="458.34" y="255.39">8</text>
<text class="belong" x="458.34" y="265.39">(3)</text>
<circle onclick="fromCircle(10)" class="circle" cx="439.4086" cy="321.4425" r="22.5296" />
<text class="nLabel" x="439.41" y="316.44">5</text>
<text class="belong" x="439.41" y="326.44">(1, 3)</text>
<circle onclick="fromCircle(11)" class="circle" cx="393.2679" cy="366.0855" r="30.2266" />
<text class="nLabel" x="393.27" y="361.09">9</text>
<text class="belong" x="393.27" y="371.09">(1, 3, 4)</text>
<circle onclick="fromCircle(3)" class="circle" cx="440.9513" cy="369.2886" r="10.0755" />
<text class="nLabel" x="440.95" y="364.29">1</text>
<text class="belong" x="440.95" y="374.29">(3, 4)</text>
<circle onclick="fromCircle(1)" class="circle" cx="366.1332" cy="417.4938" r="17.4513" />
<text class="nLabel" x="366.13" y="412.49">3</text>
<text class="belong" x="366.13" y="422.49">(4)</text>
<circle onclick="fromCircle(9)" class="circle" cx="331.1054" cy="379.8407" r="22.5296" />
<text class="nLabel" x="331.11" y="374.84">5</text>
<text class="belong" x="331.11" y="384.84">(1, 4)</text>
<circle onclick="fromCircle(13)" class="circle" cx="298.2600" cy="341.2564" r="17.4513" />
<text class="nLabel" x="298.26" y="336.26">3</text>
<text class="belong" x="298.26" y="346.26">(1, 2, 4)</text>
<g id="legendBox">
<rect class="p0 borderLine" x="500.00" y="50.00" width="30.00" height="15.00" />
<rect class="q0" x="500.00" y="50.00" width="30.00" height="15.00" />
<text class="legend" x="540.00" y="65.00">Sediment1</text>
<rect class="p1 borderLine" x="500.00" y="90.00" width="30.00" height="15.00" />
<rect class="q1" x="500.00" y="90.00" width="30.00" height="15.00" />
<text class="legend" x="540.00" y="105.00">Water</text>
<rect class="p2 borderLine" x="500.00" y="130.00" width="30.00" height="15.00" />
<rect class="q2" x="500.00" y="130.00" width="30.00" height="15.00" />
<text class="legend" x="540.00" y="145.00">Sessile</text>
<rect class="p3 borderLine" x="500.00" y="170.00" width="30.00" height="15.00" />
<rect class="q3" x="500.00" y="170.00" width="30.00" height="15.00" />
<text class="legend" x="540.00" y="185.00">Sediment2</text>
</g>
</svg>
